<svg width="410" height="121" viewBox="0 0 410 121" fill="none" xmlns="http://www.w3.org/2000/svg">
<path d="M93.5444 58.5561C93.5918 63.97 96.0267 67.5846 98.4606 69.8401C100.297 71.5422 102.137 72.4755 102.965 72.8425C102.921 72.981 102.864 73.151 102.795 73.3493C102.605 73.895 102.319 74.6525 101.927 75.5528C101.142 77.3544 99.9336 79.7205 98.2114 82.1022L98.2113 82.1021L98.2042 82.1123C96.7411 84.2454 95.2762 86.3031 93.5879 87.8407C91.9102 89.3685 90.0423 90.3544 87.7703 90.39L87.7669 90.39C85.5629 90.4395 84.0866 89.8266 82.4583 89.1507L82.369 89.1136C80.691 88.4173 78.8654 87.6815 76.0564 87.6815C73.2293 87.6815 71.3701 88.3671 69.6754 89.0573C69.5558 89.106 69.4373 89.1546 69.3195 89.2029C67.7774 89.8352 66.3628 90.4153 64.3549 90.4962C62.2282 90.572 60.3104 89.5316 58.5157 87.8893C56.7197 86.246 55.108 84.0566 53.5919 81.9428C50.6091 77.6943 47.949 71.6939 46.8182 65.4429C45.6865 59.1877 46.0962 52.7433 49.1703 47.5545L49.1716 47.5522C52.1465 42.4696 57.5675 39.2042 63.3475 39.1174L63.3499 39.1173C65.5599 39.0732 67.7123 39.8013 69.7201 40.5747C69.9811 40.6753 70.2409 40.777 70.4982 40.8778C71.2165 41.1593 71.9158 41.4332 72.5711 41.6526C73.4611 41.9505 74.3257 42.1681 75.1202 42.1681C75.9109 42.1681 76.8373 41.9057 77.8165 41.5611C78.356 41.3712 78.9509 41.1412 79.5698 40.9018C80.0629 40.7112 80.5712 40.5146 81.0789 40.3278C83.4308 39.4622 86.0382 38.6993 88.6577 38.9681L88.676 38.97L88.6945 38.9705C90.8721 39.0324 96.9366 39.7939 101.015 45.1962C99.2819 46.3225 93.4717 50.6703 93.5444 58.5561ZM93.5444 58.5561L94.0443 58.5517M93.5444 58.5561C93.5444 58.5562 93.5444 58.5562 93.5444 58.5563L94.0443 58.5517M94.0443 58.5517C94.1363 69.0459 103.459 72.5149 103.573 72.553L101.31 45.6007C99.6672 46.6636 93.9736 50.8832 94.0443 58.5517ZM88.7672 21.6958C85.2426 21.8479 80.8348 24.0728 78.2965 26.9768L88.3142 22.2284M88.7672 21.6958L88.2704 21.7519C88.2883 21.9108 88.3029 22.0696 88.3142 22.2284M88.7672 21.6958C89.2297 25.7951 87.5635 29.8347 85.1284 32.8039L88.7672 21.6958ZM88.3142 22.2284C85.0215 22.5419 81.0168 24.6243 78.673 27.3059L78.6723 27.3066C76.5636 29.7096 74.7063 33.5619 75.0141 37.1965C78.6428 37.2918 82.3675 35.2148 84.7463 32.4813C87.0216 29.7047 88.5833 25.9953 88.3142 22.2284Z" fill="white" stroke="white"/>
<path d="M150.251 79.6168L150.139 79.2719H149.776H137.728H137.36L137.251 79.6235L134.058 89.8911H128.958L140.564 54.7388H147.214L158.877 89.8911H153.605L150.251 79.6168ZM148.731 75.8167H149.424L149.206 75.1592L146.071 65.7191L146.071 65.719L146.069 65.7141C145.746 64.7727 145.13 62.5235 144.211 58.942L144.115 58.5661H143.727H143.615H143.22L143.129 58.9507C142.766 60.4785 142.181 62.7395 141.375 65.734L138.3 75.1617L138.087 75.8167H138.776H148.731Z" fill="white" stroke="white"/>
<path d="M182.861 70.6823L182.861 70.6824C184.112 72.4331 184.715 74.634 184.715 77.2483C184.715 80.0765 184.074 82.4078 182.744 84.1991L182.861 70.6823ZM182.861 70.6823L182.855 70.6734M182.861 70.6823L182.855 70.6734M182.855 70.6734C181.475 68.829 179.601 67.8976 177.283 67.8976C175.699 67.8976 174.259 68.4173 172.985 69.4265L172.984 69.4275M182.855 70.6734L172.984 69.4275M172.984 69.4275C171.702 70.4493 170.863 71.7877 170.473 73.4284M172.984 69.4275L170.473 73.4284M170.473 73.4284C170.285 74.1628 170.182 74.7938 170.182 75.3141V79.6606C170.182 81.6718 170.819 83.3949 172.102 84.8006C173.397 86.2199 175.085 86.9222 177.119 86.9222C179.502 86.9222 181.397 86.0148 182.744 84.1992L170.473 73.4284ZM170.18 87.2806V100.513H165.239V72.9045C165.239 70.2748 165.173 67.5808 165.044 64.8228H169.282L169.577 68.4947L169.613 68.9547H170.075H170.186H170.461L170.608 68.7231C172.488 65.7697 175.325 64.2876 179.208 64.2876C182.214 64.2876 184.71 65.4367 186.724 67.7606L186.724 67.7609C188.74 70.0842 189.767 73.1586 189.767 77.0364C189.767 81.3741 188.567 84.7428 186.22 87.2007C184.116 89.3894 181.514 90.4806 178.383 90.4806C174.992 90.4806 172.644 89.3037 171.215 87.0157L171.068 86.7806H170.791H170.68H170.18V87.2806Z" fill="white" stroke="white"/>
<path d="M213.605 70.6823L213.605 70.6824C214.855 72.4328 215.462 74.6335 215.462 77.2483C215.462 80.0765 214.821 82.4077 213.491 84.1991L213.605 70.6823ZM213.605 70.6823L213.598 70.6734M213.605 70.6823L213.598 70.6734M213.598 70.6734C212.219 68.8293 210.351 67.8976 208.03 67.8976C206.443 67.8976 205.006 68.4175 203.73 69.4262L203.728 69.4275M213.598 70.6734L203.728 69.4275M203.728 69.4275C202.446 70.4499 201.609 71.7887 201.219 73.4293C201.035 74.1611 200.929 74.7928 200.929 75.3141V79.6606C200.929 81.6717 201.566 83.3943 202.842 84.7997L202.843 84.801M203.728 69.4275L202.843 84.801M202.843 84.801C204.138 86.217 205.826 86.9222 207.865 86.9222M202.843 84.801L207.865 86.9222M207.865 86.9222C210.248 86.9222 212.144 86.0148 213.491 84.1992L207.865 86.9222ZM209.958 64.2876C212.961 64.2876 215.457 65.4365 217.476 67.761C219.484 70.0846 220.514 73.1593 220.514 77.0364C220.514 81.3745 219.314 84.7433 216.963 87.2013C214.862 89.3894 212.261 90.4806 209.13 90.4806C205.739 90.4806 203.391 89.3036 201.965 87.0161L201.818 86.7806H201.541H201.429H200.929V87.2806V100.513H195.989V72.9045C195.989 70.2748 195.922 67.5808 195.793 64.8228H200.031L200.326 68.4947L200.363 68.9547H200.824H200.936H201.211L201.358 68.7228C203.234 65.7697 206.072 64.2876 209.958 64.2876Z" fill="white" stroke="white"/>
<path d="M232.981 88.441L234.078 84.5935C236.613 85.9666 239.375 86.6549 242.358 86.6549C244.664 86.6549 246.529 86.1458 247.897 85.0702L247.898 85.0695C249.269 83.9867 249.955 82.5188 249.955 80.7272C249.955 79.1294 249.391 77.7633 248.264 76.6642C247.164 75.5867 245.376 74.6255 242.969 73.7562C236.555 71.4237 233.563 68.093 233.563 63.8599C233.563 61.0355 234.635 58.7398 236.797 56.9392L236.797 56.9384C238.953 55.1339 241.854 54.208 245.554 54.208C248.683 54.208 251.277 54.7091 253.363 55.685L252.183 59.4353C250.148 58.4648 247.882 57.9838 245.387 57.9838C243.22 57.9838 241.458 58.5052 240.169 59.6059L240.169 59.6057L240.159 59.6151C239.07 60.5995 238.509 61.8218 238.509 63.2595C238.509 64.8398 239.143 66.1607 240.389 67.1817C241.45 68.0996 243.315 69.0522 245.925 70.0552C249.076 71.2923 251.339 72.7201 252.774 74.3186C254.184 75.8893 254.898 77.8603 254.898 80.2518C254.898 83.1917 253.859 85.5535 251.775 87.3844C249.478 89.3912 246.247 90.4252 242.004 90.4252C238.252 90.4252 235.26 89.7516 232.981 88.441Z" fill="white" stroke="white"/>
<path d="M263.157 59.9166L267.991 58.494V64.3156V64.8156H268.491H274.539V68.1676H268.491H267.991V68.6676V81.3241C267.991 82.9783 268.285 84.3088 268.951 85.2366C269.639 86.1951 270.671 86.6515 271.957 86.6515C272.769 86.6515 273.491 86.6005 274.118 86.4939L274.247 89.9258C273.193 90.2504 271.829 90.4218 270.141 90.4218C267.9 90.4218 266.21 89.7591 265.001 88.4864C263.815 87.2295 263.157 85.0475 263.157 81.8023V68.6621V68.1621H262.657H259.256V64.8156H262.657H263.157V64.3156V59.9166Z" fill="white" stroke="white"/>
<path d="M282.36 67.993L282.361 67.9924C284.65 65.5348 287.746 64.2886 291.702 64.2886C295.506 64.2886 298.523 65.5131 300.798 67.938C302.977 70.2944 304.08 73.3468 304.08 77.1406C304.08 81.0418 302.939 84.2047 300.69 86.6713C298.338 89.2034 295.212 90.4789 291.262 90.4789C287.458 90.4789 284.476 89.2542 282.254 86.8348C280.02 84.4012 278.892 81.324 278.892 77.5725C278.892 73.6392 280.055 70.459 282.36 67.993ZM298.917 77.328C298.917 74.8511 298.374 72.6948 297.25 70.8821C295.92 68.6613 293.982 67.5237 291.49 67.5237C288.924 67.5237 286.95 68.6585 285.616 70.8822C284.491 72.6996 283.95 74.8893 283.95 77.4367C283.95 79.9147 284.493 82.0721 285.618 83.8828C286.987 86.1008 288.937 87.2383 291.437 87.2383C293.897 87.2383 295.831 86.0724 297.196 83.8277C298.347 81.9847 298.917 79.8069 298.917 77.328Z" fill="white" stroke="white"/>
<path d="M323.386 68.8361C322.944 68.7829 322.486 68.7561 322.014 68.7561C319.783 68.7561 318.01 69.5869 316.769 71.2683L316.769 71.2683L316.767 71.2708C315.703 72.7328 315.186 74.5595 315.186 76.7131V89.8911H310.251L310.305 72.5338V72.5323C310.305 69.7327 310.24 67.1636 310.111 64.8255H314.277L314.474 69.3349L314.494 69.8131H314.973H315.138H315.487L315.607 69.4849C316.203 67.856 317.135 66.559 318.404 65.5871C319.645 64.7153 320.972 64.2876 322.401 64.2876C322.755 64.2876 323.084 64.3041 323.386 64.3342V68.8361Z" fill="white" stroke="white"/>
<path d="M347.686 85.9037C345.599 86.6208 343.311 86.9751 340.835 86.9751C338.363 86.9751 336.302 86.3428 334.692 85.0411L334.689 85.0388C332.899 83.5696 331.994 81.4502 331.921 78.7627L331.907 78.2491H332.421H349.823C349.914 77.6546 349.959 76.9477 349.959 76.1222C349.959 72.9536 349.192 70.3217 347.694 68.2076C345.82 65.5707 343.065 64.2373 339.35 64.2373C335.562 64.2373 332.591 65.5751 330.388 68.2369L330.384 68.2407L330.384 68.2407C328.268 70.7475 327.198 73.9013 327.198 77.7331C327.198 81.6324 328.347 84.6879 330.599 86.9535L347.686 85.9037ZM347.686 85.9037L348.394 88.9611M347.686 85.9037L348.394 88.9611M348.394 88.9611C346.021 89.8993 343.233 90.3733 340.013 90.3733C335.967 90.3733 332.853 89.2153 330.599 86.9535L348.394 88.9611ZM345.294 74.6313L344.794 74.6256V75.1172H332.421H331.866L331.923 74.5657C332.113 72.7328 332.732 71.1395 333.784 69.8062C335.083 68.1113 336.808 67.2524 338.907 67.2524C341.18 67.2524 342.93 68.1247 344.062 69.8976C344.062 69.8979 344.062 69.8982 344.062 69.8985L343.641 70.1675L345.294 74.6313ZM345.294 74.6313C345.298 74.4687 345.298 74.3079 345.294 74.1488M345.294 74.6313L345.294 74.1488M345.294 74.1488V74.1172H345.294L345.294 74.1488Z" fill="white" stroke="white"/>
<path d="M142.346 26.9451L142.346 26.9447C141.097 25.7176 139.308 25.1416 137.061 25.1416C136.123 25.1416 135.306 25.2024 134.615 25.3353L134.21 25.4134V25.8263V39.1077V39.5378L134.635 39.6021C135.037 39.6629 135.731 39.6865 136.682 39.6865C139.008 39.6865 140.875 39.054 142.209 37.7231C143.547 36.389 144.184 34.4776 144.184 32.0717C144.184 29.9085 143.595 28.1741 142.346 26.9451ZM146.263 31.9929C146.263 35.0824 145.318 37.3296 143.498 38.8273C141.799 40.2197 139.342 40.9521 136.061 40.9521C134.616 40.9521 133.362 40.8982 132.29 40.7917V24.2007C133.694 24.0022 135.2 23.9004 136.819 23.9004C139.949 23.9004 142.218 24.5654 143.714 25.8128C145.395 27.2285 146.263 29.2621 146.263 31.9929Z" fill="white" stroke="white"/>
<path d="M160.99 39.2998C162.046 38.1398 162.588 36.6529 162.588 34.7893C162.588 32.9821 162.063 31.5455 161.048 30.441C159.982 29.3092 158.572 28.7314 156.764 28.7314C154.878 28.7314 153.431 29.3228 152.359 30.4691C151.277 31.6255 150.724 33.124 150.724 35.0012C150.724 36.7887 151.259 38.2361 152.306 39.3794L160.99 39.2998ZM160.99 39.2998C159.888 40.4847 158.426 41.0889 156.546 41.0889C154.737 41.0889 153.343 40.5106 152.306 39.3794L160.99 39.2998ZM153.555 38.2356L153.555 38.2363C154.272 39.3942 155.308 40.0053 156.63 40.0053C157.935 40.0053 158.964 39.3806 159.675 38.2083C160.271 37.2561 160.56 36.1403 160.56 34.8816C160.56 33.6257 160.281 32.5187 159.704 31.5819C159.006 30.4211 157.977 29.8096 156.658 29.8096C155.307 29.8096 154.255 30.4145 153.553 31.5814C152.971 32.5214 152.697 33.6463 152.697 34.9333C152.697 36.1903 152.976 37.2983 153.555 38.2356Z" fill="white" stroke="white"/>
<path d="M182.497 28.992H184.294L180.506 40.7952H178.566L176.971 35.588L176.971 35.5859C176.544 34.2141 176.197 32.851 175.928 31.4992L175.847 31.097H175.437H175.384H174.966L174.892 31.5084C174.643 32.8922 174.298 34.2462 173.854 35.5761L173.854 35.5761L173.853 35.5798L172.157 40.7952H170.186L166.623 28.9893H168.558L169.95 34.6956L169.95 34.6956L169.951 34.6982C170.308 36.1281 170.601 37.4895 170.836 38.777L170.911 39.1873H171.328H171.381H171.789L171.871 38.7868C172.083 37.7382 172.438 36.3914 172.942 34.7513L172.943 34.7501L174.699 28.992H176.335L178.014 34.6158C178.014 34.616 178.015 34.6162 178.015 34.6164C178.443 36.062 178.79 37.4516 179.057 38.788L179.137 39.19H179.547H179.628H180.058L180.122 38.7643C180.317 37.4679 180.611 36.0817 181.003 34.6022C181.003 34.6021 181.003 34.602 181.003 34.6019L182.497 28.992Z" fill="white" stroke="white"/>
<path d="M199.615 33.6259V40.7976H197.695V33.9628C197.695 32.7816 197.467 31.8034 196.928 31.1125C196.371 30.3979 195.546 30.0725 194.548 30.0725C193.545 30.0725 192.705 30.439 192.062 31.1754L192.062 31.1754L192.061 31.1773C191.444 31.8913 191.128 32.7412 191.128 33.6993V40.7949H189.208V32.1508C189.208 31.1672 189.181 30.1134 189.128 28.9862H190.701L190.806 30.5223L190.838 30.9883H191.305H191.386H191.682L191.825 30.728C192.117 30.1924 192.558 29.7399 193.159 29.3694C193.868 28.9413 194.664 28.7227 195.546 28.7227C196.657 28.7227 197.548 29.0679 198.257 29.7443L198.257 29.7443L198.26 29.747C199.136 30.5704 199.615 31.8327 199.615 33.6259Z" fill="white" stroke="white"/>
<path d="M207.669 40.7957H205.751V23.1138H207.669V40.7957Z" fill="white" stroke="white"/>
<path d="M214.575 39.3798L214.574 39.3794C213.527 38.2361 212.992 36.7888 212.992 35.0012C212.992 33.124 213.545 31.6255 214.626 30.4691C215.699 29.3227 217.146 28.7314 219.028 28.7314C220.839 28.7314 222.247 29.309 223.316 30.4412C224.33 31.5457 224.856 32.9822 224.856 34.7893C224.856 36.6529 224.314 38.1398 223.258 39.2998C222.156 40.4846 220.691 41.0889 218.814 41.0889C217.001 41.0889 215.608 40.5105 214.575 39.3798ZM215.822 38.2356L215.823 38.2363C216.54 39.3942 217.575 40.0053 218.898 40.0053C220.203 40.0053 221.229 39.3803 221.939 38.2088C222.539 37.2555 222.825 36.1392 222.825 34.8816C222.825 33.6259 222.546 32.519 221.969 31.5823C221.274 30.4206 220.241 29.8096 218.925 29.8096C217.572 29.8096 216.52 30.4141 215.821 31.5818C215.239 32.5217 214.965 33.6465 214.965 34.9333C214.965 36.1903 215.244 37.2983 215.822 38.2356Z" fill="white" stroke="white"/>
<path d="M232.733 41.0889C231.606 41.0889 230.739 40.7402 230.092 40.0792C229.504 39.4778 229.206 38.7339 229.206 37.821C229.206 36.4314 229.784 35.3995 230.982 34.664L230.983 34.6637C232.214 33.9068 233.996 33.5076 236.381 33.5262L236.885 33.5301V33.0262V32.7872C236.885 31.8567 236.633 31.0698 236.044 30.5233C235.461 29.9835 234.635 29.758 233.658 29.758C232.51 29.758 231.461 29.9928 230.523 30.4662L230.24 29.5738C231.305 29.0199 232.605 28.7314 234.145 28.7314C235.781 28.7314 236.918 29.1513 237.651 29.9046C238.387 30.6603 238.8 31.837 238.8 33.5288V38.2448C238.8 39.2425 238.838 40.0957 238.916 40.7982H237.299L237.145 39.7502L237.082 39.3231H236.65H236.569H236.322L236.172 39.5199C235.381 40.556 234.259 41.0889 232.733 41.0889ZM236.958 34.9224V34.4308L236.466 34.4225C234.827 34.3948 233.516 34.5959 232.599 35.0862C232.132 35.3356 231.757 35.6649 231.502 36.0831C231.246 36.5021 231.126 36.9816 231.126 37.5031C231.126 38.2622 231.338 38.9203 231.854 39.3792C232.336 39.8071 232.939 40.0053 233.613 40.0053C234.364 40.0053 235.065 39.7707 235.691 39.3186L235.692 39.3183C236.332 38.8559 236.746 38.2498 236.899 37.5009C236.939 37.3198 236.958 37.1154 236.958 36.8973V34.9224Z" fill="white" stroke="white"/>
<path d="M244.043 35.053C244.043 33.0769 244.58 31.526 245.617 30.3544C246.624 29.2625 247.838 28.7262 249.3 28.7262C250.949 28.7262 251.988 29.2588 252.572 30.2238L252.718 30.4648H253H253.055H253.555V29.9648V23.1138H255.478V37.8457C255.478 38.8952 255.502 39.8781 255.551 40.7957H253.958L253.852 39.2061L253.821 38.7393H253.354H253.273H252.972L252.831 39.0055C252.458 39.7109 251.964 40.223 251.353 40.5626C250.739 40.904 249.979 41.0864 249.054 41.0864C247.619 41.0864 246.438 40.545 245.488 39.4425C244.537 38.3398 244.043 36.891 244.043 35.053ZM253.462 32.7504L253.462 32.7504L253.461 32.7467C253.272 31.9585 252.861 31.2917 252.245 30.76L252.244 30.7584C251.604 30.2116 250.832 29.9402 249.965 29.9402C248.724 29.9402 247.72 30.4314 246.995 31.4082L246.994 31.4099C246.295 32.3595 245.96 33.5489 245.96 34.9471C245.96 36.2908 246.278 37.4325 246.958 38.3315C247.687 39.3012 248.689 39.7936 249.91 39.7936C251.007 39.7936 251.916 39.3844 252.598 38.5628C253.244 37.8157 253.555 36.9156 253.555 35.8951V33.7599C253.555 33.3697 253.526 33.0294 253.462 32.7504Z" fill="white" stroke="white"/>
<path d="M271.521 38.2356L271.522 38.2363C272.239 39.3942 273.274 40.0053 274.596 40.0053C275.902 40.0053 276.933 39.3809 277.644 38.2078C278.237 37.2566 278.529 36.1415 278.529 34.8816C278.529 33.6256 278.25 32.5184 277.673 31.5815C276.973 30.4215 275.947 29.8096 274.624 29.8096C273.276 29.8096 272.224 30.4149 271.52 31.581C270.938 32.5211 270.664 33.6461 270.664 34.9333C270.664 36.1903 270.943 37.2983 271.521 38.2356ZM280.555 34.7893C280.555 36.6529 280.013 38.1398 278.957 39.2998C277.855 40.4847 276.396 41.0889 274.513 41.0889C272.707 41.0889 271.313 40.5109 270.273 39.3794C269.226 38.2361 268.691 36.7888 268.691 35.0012C268.691 33.124 269.244 31.6255 270.325 30.4691C271.397 29.3229 272.845 28.7314 274.733 28.7314C276.539 28.7314 277.951 29.3094 279.014 30.4408C280.029 31.5453 280.555 32.982 280.555 34.7893Z" fill="white" stroke="white"/>
<path d="M288.466 30.7295C288.762 30.1927 289.204 29.7398 289.802 29.3694C290.514 28.941 291.307 28.7227 292.191 28.7227C293.299 28.7227 294.191 29.0678 294.9 29.7443L294.899 29.7443L294.903 29.7474C295.781 30.5704 296.258 31.832 296.258 33.6259V40.7976H294.341V33.9628C294.341 32.7816 294.113 31.8033 293.573 31.1123C293.015 30.3978 292.19 30.0725 291.191 30.0725C290.188 30.0725 289.348 30.4389 288.707 31.1763C288.086 31.8916 287.774 32.7422 287.774 33.6993V40.7949H285.851V32.1508C285.851 31.1678 285.826 30.114 285.773 28.9862H287.344L287.449 30.5223L287.481 30.9883H287.948H288.028H288.324L288.466 30.7295Z" fill="white" stroke="white"/>
<path d="M313.194 30.1245H312.694V30.6245V36.8455C312.694 37.6814 312.842 38.3977 313.215 38.9161C313.609 39.4646 314.2 39.7171 314.896 39.7171C315.19 39.7171 315.465 39.7041 315.718 39.676L315.76 40.8792C315.3 40.997 314.718 41.0615 314.005 41.0615C312.956 41.0615 312.202 40.7544 311.668 40.1906L311.667 40.1898C311.149 39.6458 310.83 38.6556 310.83 37.0818V30.6245V30.1245H310.33H308.91V28.992H310.33H310.83V28.492V26.5189L312.691 25.9711V28.4893V28.9893H313.191H315.907V30.1245H313.194Z" fill="white" stroke="white"/>
<path d="M322.871 33.5915V40.793H320.954V23.1138H322.871V30.3316V30.8316H323.371H323.427H323.697L323.845 30.6055C324.67 29.3457 325.828 28.7262 327.372 28.7262C328.464 28.7262 329.335 29.0698 330.026 29.7442C330.887 30.5837 331.361 31.8682 331.361 33.6811V40.7957H329.438V34.0153C329.438 32.8176 329.211 31.8273 328.674 31.1278C328.118 30.4031 327.293 30.0706 326.294 30.0706C325.532 30.0706 324.855 30.2592 324.291 30.6635C323.73 31.0664 323.32 31.6551 323.04 32.3893L323.034 32.4044L323.03 32.4199C322.926 32.756 322.871 33.1493 322.871 33.5915Z" fill="white" stroke="white"/>
<path d="M343.081 39.8734C344.217 39.8734 345.278 39.7248 346.26 39.4209L346.495 40.4377C345.407 40.8327 344.138 41.0358 342.671 41.0358C340.737 41.0358 339.275 40.4834 338.231 39.4315L338.23 39.4306C337.177 38.3746 336.635 36.9442 336.635 35.0812C336.635 33.2481 337.142 31.76 338.138 30.5821L338.138 30.5821L338.142 30.5778C339.169 29.3344 340.552 28.7056 342.348 28.7056C344.099 28.7056 345.371 29.3301 346.234 30.5483L346.234 30.5483L346.236 30.5516C346.946 31.5368 347.312 32.7735 347.312 34.288C347.312 34.585 347.298 34.8479 347.273 35.0784H338.946H338.43L338.446 35.5938C338.489 36.9693 338.95 38.0832 339.896 38.8628L339.896 38.8628L339.9 38.8662C340.749 39.5508 341.823 39.8734 343.081 39.8734ZM345.026 34.0518H345.513L345.525 33.565C345.55 32.6333 345.337 31.8037 344.881 31.0947C344.271 30.144 343.33 29.6778 342.136 29.6778C341.026 29.6778 340.104 30.1375 339.418 31.0312C338.87 31.7288 338.553 32.555 338.449 33.4971L338.388 34.0518H338.946H345.026Z" fill="white" stroke="white"/>
<path d="M405.277 16.4308C405.277 9.9664 399.892 4.69338 393.26 4.69338H16.8796C10.2484 4.69338 4.86344 9.96639 4.86344 16.4308V104.718C4.86344 111.183 10.2484 116.456 16.8796 116.456H393.26C399.892 116.456 405.277 111.183 405.277 104.718V16.4308ZM16.8796 1.09695H393.26C401.876 1.09695 408.942 7.99293 408.942 16.4308V104.718C408.942 113.156 401.876 120.052 393.26 120.052H16.8796C8.26358 120.052 1.19785 113.156 1.19785 104.718V16.4308C1.19785 7.99293 8.26358 1.09695 16.8796 1.09695Z" fill="white" stroke="white"/>
</svg>
