<svg width="410" height="122" viewBox="0 0 410 122" fill="none" xmlns="http://www.w3.org/2000/svg">
<path d="M405.277 16.8859C405.277 10.4215 399.892 5.14846 393.26 5.14846H16.8796C10.2484 5.14846 4.86344 10.4215 4.86344 16.8859V105.174C4.86344 111.638 10.2484 116.911 16.8796 116.911H393.26C399.892 116.911 405.277 111.638 405.277 105.174V16.8859ZM16.8796 1.55203H393.26C401.876 1.55203 408.942 8.448 408.942 16.8859V105.174C408.942 113.611 401.876 120.507 393.26 120.507H16.8796C8.26358 120.507 1.19785 113.611 1.19785 105.174V16.8859C1.19785 8.44801 8.26358 1.55203 16.8796 1.55203Z" fill="white" stroke="white"/>
<path d="M142.035 34.392C142.035 36.6604 141.34 38.4771 139.969 39.832C138.394 41.4382 136.342 42.2464 133.827 42.2464C131.424 42.2464 129.372 41.4246 127.688 39.8048C126.002 38.1613 125.16 36.1442 125.16 33.7299C125.16 31.3155 126.002 29.2984 127.688 27.6685C129.372 26.0351 131.424 25.2134 133.827 25.2134C135.024 25.2134 136.164 25.4545 137.253 25.9027C138.338 26.3543 139.222 26.9656 139.861 27.7194L138.408 29.1524C137.291 27.8654 135.771 27.2304 133.827 27.2304C132.074 27.2304 130.554 27.8281 129.264 29.0336C127.988 30.2425 127.348 31.8079 127.348 33.7299C127.348 35.6519 127.988 37.2309 129.264 38.4397C130.554 39.6316 132.074 40.2429 133.827 40.2429C135.688 40.2429 137.253 39.6316 138.488 38.4262C139.302 37.6282 139.764 36.5279 139.886 35.1221H133.827V33.1594H141.91C142.007 33.5839 142.035 33.9947 142.035 34.392Z" fill="white" stroke="white" stroke-width="0.16" stroke-miterlimit="10"/>
<path d="M154.857 27.588H147.264V32.7495H154.109V34.7122H147.264V39.8737H154.857V41.8738H145.115V25.5879H154.857V27.588Z" fill="white" stroke="white" stroke-width="0.16" stroke-miterlimit="10"/>
<path d="M163.904 41.8738H161.755V27.588H157.098V25.5879H168.565V27.588H163.904V41.8738Z" fill="white" stroke="white" stroke-width="0.16" stroke-miterlimit="10"/>
<path d="M176.869 41.8738V25.5879H179.014V41.8738H176.869Z" fill="white" stroke="white" stroke-width="0.16" stroke-miterlimit="10"/>
<path d="M188.532 41.8738H186.4V27.588H181.725V25.5879H193.206V27.588H188.532V41.8738Z" fill="white" stroke="white" stroke-width="0.16" stroke-miterlimit="10"/>
<path d="M214.915 39.7767C213.27 41.4236 211.232 42.2454 208.801 42.2454C206.356 42.2454 204.318 41.4236 202.673 39.7767C201.031 38.1332 200.214 36.1161 200.214 33.7289C200.214 31.3417 201.031 29.3246 202.673 27.6811C204.318 26.0342 206.356 25.2124 208.801 25.2124C211.218 25.2124 213.256 26.0342 214.901 27.6947C216.557 29.3518 217.374 31.3553 217.374 33.7289C217.374 36.1161 216.557 38.1332 214.915 39.7767ZM204.262 38.4116C205.5 39.6307 207.006 40.2419 208.801 40.2419C210.582 40.2419 212.101 39.6307 213.326 38.4116C214.56 37.1925 215.186 35.6271 215.186 33.7289C215.186 31.8307 214.56 30.2652 213.326 29.0462C212.101 27.8271 210.582 27.2159 208.801 27.2159C207.006 27.2159 205.5 27.8271 204.262 29.0462C203.027 30.2652 202.401 31.8307 202.401 33.7289C202.401 35.6271 203.027 37.1925 204.262 38.4116Z" fill="white" stroke="white" stroke-width="0.16" stroke-miterlimit="10"/>
<path d="M220.385 41.8738V25.5879H222.993L231.104 38.254H231.198L231.104 35.1231V25.5879H233.25V41.8738H231.01L222.517 28.5829H222.423L222.517 31.7274V41.8738H220.385Z" fill="white" stroke="white" stroke-width="0.16" stroke-miterlimit="10"/>
<path d="M199.678 65.6558C193.143 65.6558 187.804 70.5117 187.804 77.2115C187.804 83.8569 193.143 88.7637 199.678 88.7637C206.227 88.7637 211.566 83.8569 211.566 77.2115C211.566 70.5117 206.227 65.6558 199.678 65.6558ZM199.678 84.2135C196.092 84.2135 193.007 81.3237 193.007 77.2115C193.007 73.0449 196.092 70.2061 199.678 70.2061C203.264 70.2061 206.363 73.0449 206.363 77.2115C206.363 81.3237 203.264 84.2135 199.678 84.2135ZM173.77 65.6558C167.221 65.6558 161.896 70.5117 161.896 77.2115C161.896 83.8569 167.221 88.7637 173.77 88.7637C180.316 88.7637 185.644 83.8569 185.644 77.2115C185.644 70.5117 180.316 65.6558 173.77 65.6558ZM173.77 84.2135C170.181 84.2135 167.086 81.3237 167.086 77.2115C167.086 73.0449 170.181 70.2061 173.77 70.2061C177.356 70.2061 180.441 73.0449 180.441 77.2115C180.441 81.3237 177.356 84.2135 173.77 84.2135ZM142.941 69.1976V74.1078H154.951C154.6 76.8515 153.66 78.8686 152.221 80.2744C150.468 81.9723 147.737 83.8569 142.941 83.8569C135.55 83.8569 129.763 78.0332 129.763 70.8173C129.763 63.6014 135.55 57.7777 142.941 57.7777C146.938 57.7777 149.845 59.3024 151.991 61.2787L155.535 57.8185C152.534 55.0204 148.541 52.8709 142.941 52.8709C132.806 52.8709 124.289 60.9222 124.289 70.8173C124.289 80.7125 132.806 88.7637 142.941 88.7637C148.419 88.7637 152.534 87.0115 155.768 83.7245C159.083 80.4884 160.116 75.9381 160.116 72.2639C160.116 71.1229 160.018 70.0737 159.844 69.1976H142.941ZM269.005 73.0042C268.028 70.42 265.013 65.6558 258.87 65.6558C252.784 65.6558 247.716 70.3385 247.716 77.2115C247.716 83.6837 252.732 88.7637 259.455 88.7637C264.891 88.7637 268.028 85.5276 269.318 83.643L265.284 81.0181C263.938 82.9401 262.105 84.2135 259.455 84.2135C256.822 84.2135 254.933 83.0351 253.723 80.7125L269.551 74.3183L269.005 73.0042ZM252.867 76.8515C252.732 72.3963 256.411 70.1144 259.048 70.1144C261.114 70.1144 262.867 71.1229 263.451 72.5661L252.867 76.8515ZM240.002 88.0608H245.205V54.1035H240.002V88.0608ZM231.481 68.2298H231.307C230.138 66.8783 227.909 65.6558 225.085 65.6558C219.158 65.6558 213.74 70.7358 213.74 77.2488C213.74 83.7245 219.158 88.7637 225.085 88.7637C227.909 88.7637 230.138 87.5311 231.307 86.1388H231.481V87.796C231.481 92.2138 229.064 94.5874 225.165 94.5874C221.986 94.5874 220.014 92.3462 219.2 90.4616L214.675 92.3055C215.98 95.3684 219.433 99.1377 225.165 99.1377C231.265 99.1377 236.413 95.6333 236.413 87.1066V66.3587H231.481V68.2298ZM225.53 84.2135C221.944 84.2135 218.943 81.283 218.943 77.2488C218.943 73.1773 221.944 70.2061 225.53 70.2061C229.064 70.2061 231.85 73.1773 231.85 77.2488C231.85 81.283 229.064 84.2135 225.53 84.2135ZM293.365 54.1035H280.921V88.0608H286.11V75.1944H293.365C299.128 75.1944 304.78 71.1229 304.78 64.6473C304.78 58.175 299.114 54.1035 293.365 54.1035ZM293.501 70.471H286.11V58.827H293.501C297.375 58.827 299.587 61.968 299.587 64.6473C299.587 67.2756 297.375 70.471 293.501 70.471ZM325.579 65.5913C321.829 65.5913 317.93 67.2077 316.327 70.7901L320.932 72.6748C321.923 70.7901 323.746 70.1789 325.673 70.1789C328.364 70.1789 331.095 71.7579 331.136 74.5458V74.9024C330.197 74.3726 328.187 73.5882 325.714 73.5882C320.755 73.5882 315.701 76.2539 315.701 81.2286C315.701 85.7789 319.763 88.7094 324.33 88.7094C327.822 88.7094 329.749 87.1711 330.959 85.3816H331.136V88.0065H336.148V74.9805C336.148 68.9599 331.543 65.5913 325.579 65.5913ZM324.953 84.1999C323.255 84.1999 320.89 83.3781 320.89 81.3237C320.89 78.6954 323.84 77.6869 326.392 77.6869C328.678 77.6869 329.749 78.1793 331.136 78.8278C330.73 81.9723 327.958 84.1999 324.953 84.1999ZM354.408 66.335L348.443 81.0554H348.266L342.099 66.335H336.503L345.768 86.9063L340.482 98.3533H345.904L360.181 66.335H354.408ZM307.632 88.0608H312.835V54.1035H307.632V88.0608Z" fill="white"/>
<path d="M39.1432 27.0453C38.3259 27.8806 37.8529 29.1812 37.8529 30.8655V90.9427C37.8529 92.627 38.3259 93.9276 39.1432 94.7629L39.345 94.9463L73.826 61.2946V60.5L39.345 26.8483L39.1432 27.0453Z" fill="url(#paint0_linear_2_1478)"/>
<path d="M85.2986 72.5171L73.8176 61.2942V60.4996L85.3125 49.2767L85.5698 49.4227L99.1828 56.985C103.068 59.1311 103.068 62.6627 99.1828 64.8224L85.5698 72.3711L85.2986 72.5171Z" fill="url(#paint1_linear_2_1478)"/>
<path d="M85.5731 72.3708L73.8209 60.8966L39.1382 94.7622C40.4285 96.0866 42.5327 96.2462 44.9256 94.9218L85.5731 72.3708Z" fill="url(#paint2_linear_2_1478)"/>
<path d="M85.5731 49.4228L44.9256 26.8718C42.5327 25.561 40.4285 25.7206 39.1382 27.0449L73.8209 60.897L85.5731 49.4228Z" fill="url(#paint3_linear_2_1478)"/>
<defs>
<linearGradient id="paint0_linear_2_1478" x1="70.7645" y1="91.5684" x2="25.1867" y2="44.8862" gradientUnits="userSpaceOnUse">
<stop stop-color="#00A0FF"/>
<stop offset="0.0066" stop-color="#00A1FF"/>
<stop offset="0.2601" stop-color="#00BEFF"/>
<stop offset="0.5122" stop-color="#00D2FF"/>
<stop offset="0.7604" stop-color="#00DFFF"/>
<stop offset="1" stop-color="#00E3FF"/>
</linearGradient>
<linearGradient id="paint1_linear_2_1478" x1="104.242" y1="60.8931" x2="36.9159" y2="60.8931" gradientUnits="userSpaceOnUse">
<stop stop-color="#FFE000"/>
<stop offset="0.4087" stop-color="#FFBD00"/>
<stop offset="0.7754" stop-color="#FFA500"/>
<stop offset="1" stop-color="#FF9C00"/>
</linearGradient>
<linearGradient id="paint2_linear_2_1478" x1="79.1826" y1="54.6591" x2="17.3755" y2="-8.64571" gradientUnits="userSpaceOnUse">
<stop stop-color="#FF3A44"/>
<stop offset="1" stop-color="#C31162"/>
</linearGradient>
<linearGradient id="paint3_linear_2_1478" x1="30.4078" y1="114.75" x2="58.0075" y2="86.4818" gradientUnits="userSpaceOnUse">
<stop stop-color="#32A071"/>
<stop offset="0.0685" stop-color="#2DA771"/>
<stop offset="0.4762" stop-color="#15CF74"/>
<stop offset="0.8009" stop-color="#06E775"/>
<stop offset="1" stop-color="#00F076"/>
</linearGradient>
</defs>
</svg>
