<svg width="311" height="49" viewBox="0 0 311 49" fill="none" xmlns="http://www.w3.org/2000/svg">
<path d="M0 26.0089C0 13.4784 10.2819 3.32031 22.9653 3.32031H68.8959C81.5793 3.32031 91.8612 13.4784 91.8612 26.0089C91.8612 38.5395 81.5793 48.6975 68.8959 48.6975H22.9653C10.2819 48.6975 0 38.5395 0 26.0089Z" fill="#FF782C"/>
<path d="M87.4342 26.009C87.4342 36.7058 78.7627 45.3773 68.0658 45.3773C57.369 45.3773 48.6975 36.7058 48.6975 26.009C48.6975 15.3121 57.369 6.64062 68.0658 6.64062C78.7627 6.64062 87.4342 15.3121 87.4342 26.009Z" fill="white"/>
<path d="M131.856 43.1637C129.913 43.1637 128.181 42.8293 126.661 42.1604C125.141 41.4783 123.938 40.475 123.052 39.1503C122.18 37.8125 121.744 36.1468 121.744 34.1532C121.744 32.4744 122.054 31.0645 122.676 29.9234C123.297 28.7824 124.143 27.8643 125.214 27.1691C126.284 26.474 127.5 25.9494 128.862 25.5952C130.237 25.2411 131.677 24.9919 133.184 24.8477C134.956 24.664 136.383 24.4935 137.467 24.3361C138.551 24.1656 139.338 23.9164 139.827 23.5886C140.316 23.2607 140.56 22.7754 140.56 22.1327V22.0147C140.56 20.7687 140.164 19.8047 139.371 19.1227C138.591 18.4406 137.48 18.0996 136.04 18.0996C134.519 18.0996 133.31 18.4341 132.411 19.103C131.512 19.7588 130.917 20.5851 130.627 21.5819L122.814 20.9523C123.211 19.1161 123.991 17.5291 125.154 16.1913C126.317 14.8404 127.818 13.8043 129.655 13.0829C131.506 12.3484 133.647 11.9812 136.079 11.9812C137.771 11.9812 139.39 12.1779 140.937 12.5714C142.497 12.9649 143.878 13.5747 145.081 14.401C146.297 15.2273 147.256 16.2897 147.956 17.5881C148.657 18.8735 149.007 20.4146 149.007 22.2114V42.5932H140.997V38.4027H140.759C140.27 39.347 139.615 40.1799 138.796 40.9012C137.976 41.6095 136.991 42.1669 135.841 42.5735C134.691 42.967 133.363 43.1637 131.856 43.1637ZM134.275 37.3797C135.517 37.3797 136.615 37.137 137.566 36.6518C138.518 36.1534 139.265 35.4845 139.807 34.6451C140.349 33.8057 140.62 32.8548 140.62 31.7924V28.5856C140.355 28.7561 139.992 28.9135 139.529 29.0578C139.08 29.1889 138.571 29.3135 138.003 29.4316C137.434 29.5365 136.866 29.6349 136.297 29.7267C135.729 29.8054 135.213 29.8775 134.751 29.9431C133.759 30.0874 132.894 30.3169 132.153 30.6317C131.413 30.9464 130.838 31.3727 130.428 31.9104C130.018 32.4351 129.814 33.0909 129.814 33.8778C129.814 35.0189 130.23 35.8911 131.063 36.4944C131.909 37.0846 132.979 37.3797 134.275 37.3797Z" fill="white"/>
<path d="M164.828 43.085C162.515 43.085 160.42 42.4948 158.543 41.3144C156.679 40.1209 155.199 38.3699 154.102 36.0616C153.018 33.7401 152.476 30.894 152.476 27.5233C152.476 24.0607 153.037 21.1818 154.161 18.8866C155.285 16.5782 156.778 14.8535 158.642 13.7124C160.519 12.5583 162.575 11.9812 164.809 11.9812C166.514 11.9812 167.935 12.2697 169.072 12.8468C170.222 13.4108 171.147 14.119 171.848 14.9715C172.561 15.811 173.103 16.6372 173.473 17.4504H173.731V2.3018H182.158V42.5932H173.83V37.7535H173.473C173.077 38.5929 172.515 39.4257 171.788 40.252C171.074 41.0652 170.142 41.7406 168.992 42.2784C167.856 42.8161 166.468 43.085 164.828 43.085ZM167.505 36.4157C168.867 36.4157 170.017 36.0484 170.955 35.314C171.907 34.5664 172.634 33.5237 173.136 32.1859C173.652 30.8481 173.91 29.2808 173.91 27.4839C173.91 25.6871 173.658 24.1263 173.156 22.8016C172.654 21.4769 171.927 20.4539 170.975 19.7325C170.023 19.0112 168.867 18.6505 167.505 18.6505C166.117 18.6505 164.947 19.0243 163.996 19.7719C163.044 20.5195 162.324 21.5556 161.834 22.8803C161.345 24.205 161.101 25.7395 161.101 27.4839C161.101 29.2414 161.345 30.7956 161.834 32.1465C162.337 33.4843 163.057 34.5336 163.996 35.2943C164.947 36.0419 166.117 36.4157 167.505 36.4157Z" fill="white"/>
<path d="M198.371 43.085C196.058 43.085 193.963 42.4948 192.086 41.3144C190.222 40.1209 188.741 38.3699 187.644 36.0616C186.56 33.7401 186.018 30.894 186.018 27.5233C186.018 24.0607 186.58 21.1818 187.704 18.8866C188.827 16.5782 190.321 14.8535 192.185 13.7124C194.062 12.5583 196.117 11.9812 198.351 11.9812C200.056 11.9812 201.477 12.2697 202.614 12.8468C203.764 13.4108 204.69 14.119 205.39 14.9715C206.104 15.811 206.646 16.6372 207.016 17.4504H207.274V2.3018H215.701V42.5932H207.373V37.7535H207.016C206.62 38.5929 206.058 39.4257 205.331 40.252C204.617 41.0652 203.685 41.7406 202.535 42.2784C201.398 42.8161 200.01 43.085 198.371 43.085ZM201.048 36.4157C202.409 36.4157 203.559 36.0484 204.498 35.314C205.45 34.5664 206.177 33.5237 206.679 32.1859C207.195 30.8481 207.452 29.2808 207.452 27.4839C207.452 25.6871 207.201 24.1263 206.699 22.8016C206.197 21.4769 205.47 20.4539 204.518 19.7325C203.566 19.0112 202.409 18.6505 201.048 18.6505C199.66 18.6505 198.49 19.0243 197.538 19.7719C196.587 20.5195 195.866 21.5556 195.377 22.8803C194.888 24.205 194.643 25.7395 194.643 27.4839C194.643 29.2414 194.888 30.7956 195.377 32.1465C195.879 33.4843 196.6 34.5336 197.538 35.2943C198.49 36.0419 199.66 36.4157 201.048 36.4157Z" fill="white"/>
<path d="M220.691 42.5932V12.3746H228.741V17.7062H229.098C229.733 15.9356 230.79 14.5387 232.271 13.5157C233.751 12.4927 235.522 11.9812 237.585 11.9812C239.673 11.9812 241.451 12.4992 242.918 13.5354C244.386 14.5584 245.364 15.9487 245.853 17.7062H246.17C246.791 15.9749 247.915 14.5912 249.541 13.5551C251.18 12.5058 253.116 11.9812 255.35 11.9812C258.192 11.9812 260.499 12.8796 262.27 14.6764C264.055 16.4602 264.947 18.9915 264.947 22.2704V42.5932H256.52V23.923C256.52 22.2442 256.071 20.9851 255.172 20.1457C254.273 19.3063 253.149 18.8866 251.801 18.8866C250.268 18.8866 249.072 19.3719 248.212 20.3424C247.353 21.2999 246.923 22.5655 246.923 24.1394V42.5932H238.735V23.7459C238.735 22.2639 238.305 21.0835 237.446 20.2047C236.6 19.326 235.483 18.8866 234.095 18.8866C233.156 18.8866 232.31 19.1227 231.557 19.5948C230.817 20.0539 230.228 20.7031 229.792 21.5425C229.356 22.3688 229.138 23.3394 229.138 24.4542V42.5932H220.691Z" fill="white"/>
<path d="M269.665 42.5932V12.3746H278.112V42.5932H269.665ZM273.908 8.47929C272.652 8.47929 271.575 8.06614 270.676 7.23985C269.79 6.40045 269.348 5.3971 269.348 4.22981C269.348 3.07563 269.79 2.08539 270.676 1.25911C271.575 0.419703 272.652 0 273.908 0C275.164 0 276.235 0.419703 277.12 1.25911C278.019 2.08539 278.468 3.07563 278.468 4.22981C278.468 5.3971 278.019 6.40045 277.12 7.23985C276.235 8.06614 275.164 8.47929 273.908 8.47929Z" fill="white"/>
<path d="M291.37 25.1231V42.5932H282.924V12.3746H290.974V17.7062H291.331C292.005 15.9487 293.135 14.5584 294.721 13.5354C296.307 12.4992 298.231 11.9812 300.491 11.9812C302.606 11.9812 304.45 12.4402 306.023 13.3583C307.596 14.2764 308.819 15.588 309.691 17.293C310.564 18.9849 311 21.0048 311 23.3525V42.5932H302.553V24.8477C302.566 22.9983 302.091 21.5556 301.126 20.5195C300.161 19.4702 298.832 18.9456 297.14 18.9456C296.003 18.9456 294.999 19.1882 294.126 19.6735C293.267 20.1588 292.593 20.867 292.104 21.7983C291.628 22.7164 291.383 23.8246 291.37 25.1231Z" fill="white"/>
</svg>
